<?xml version="1.0" encoding="UTF-8"?>
<!DOCTYPE svg PUBLIC "-//W3C//DTD SVG 1.1//EN" "http://www.w3.org/Graphics/SVG/1.1/DTD/svg11.dtd">
<svg xmlns="http://www.w3.org/2000/svg" xmlns:xlink="http://www.w3.org/1999/xlink" version="1.1" width="314px" height="202px" viewBox="-0.5 -0.5 314 202" style="background-color: rgb(255, 255, 255);"><defs/><g><path d="M 135 51.5 L 135 25.5 L 188 25.5 L 188 51.5" fill="none" stroke="rgb(0, 0, 0)" stroke-miterlimit="10" pointer-events="all"/><path d="M 135 51.5 L 135 77.5 L 188 77.5 L 188 51.5" fill="none" stroke="rgb(0, 0, 0)" stroke-miterlimit="10" pointer-events="none"/><path d="M 135 51.5 L 188 51.5" fill="none" stroke="rgb(0, 0, 0)" stroke-miterlimit="10" pointer-events="none"/><g fill="rgb(0, 0, 0)" font-family="Helvetica" pointer-events="none" text-anchor="middle" font-size="12px"><text x="161" y="43">A</text></g><path d="M 198.51 124.5 L 198.51 101 L 174.8 101 L 174.77 85.62" fill="none" stroke="rgb(0, 0, 0)" stroke-miterlimit="10" pointer-events="none"/><path d="M 174.75 78.62 L 178.27 85.61 L 171.27 85.63 Z" fill="none" stroke="rgb(0, 0, 0)" stroke-miterlimit="10" pointer-events="none"/><path d="M 172 150.5 L 172 124.5 L 225 124.5 L 225 150.5" fill="none" stroke="rgb(0, 0, 0)" stroke-miterlimit="10" pointer-events="none"/><path d="M 172 150.5 L 172 176.5 L 225 176.5 L 225 150.5" fill="none" stroke="rgb(0, 0, 0)" stroke-miterlimit="10" pointer-events="none"/><path d="M 172 150.5 L 225 150.5" fill="none" stroke="rgb(0, 0, 0)" stroke-miterlimit="10" pointer-events="none"/><g fill="rgb(0, 0, 0)" font-family="Helvetica" pointer-events="none" text-anchor="middle" font-size="12px"><text x="198" y="142">B</text></g><path d="M 256.02 124.5 L 256.02 101 L 174.8 101 L 174.77 85.62" fill="none" stroke="rgb(0, 0, 0)" stroke-miterlimit="10" pointer-events="none"/><path d="M 174.75 78.62 L 178.27 85.61 L 171.27 85.63 Z" fill="none" stroke="rgb(0, 0, 0)" stroke-miterlimit="10" pointer-events="none"/><path d="M 234 150.5 L 234 124.5 L 287 124.5 L 287 150.5" fill="none" stroke="rgb(0, 0, 0)" stroke-miterlimit="10" pointer-events="none"/><path d="M 234 150.5 L 234 176.5 L 287 176.5 L 287 150.5" fill="none" stroke="rgb(0, 0, 0)" stroke-miterlimit="10" pointer-events="none"/><path d="M 234 150.5 L 287 150.5" fill="none" stroke="rgb(0, 0, 0)" stroke-miterlimit="10" pointer-events="none"/><g fill="rgb(0, 0, 0)" font-family="Helvetica" pointer-events="none" text-anchor="middle" font-size="12px"><text x="260" y="142">C</text></g><path d="M 114.02 124.5 L 114.02 101 L 148.21 101 L 148.24 85.62" fill="none" stroke="rgb(0, 0, 0)" stroke-miterlimit="10" pointer-events="none"/><path d="M 148.25 78.62 L 151.74 85.62 L 144.74 85.61 Z" fill="none" stroke="rgb(0, 0, 0)" stroke-miterlimit="10" pointer-events="none"/><path d="M 90 150.5 L 90 124.5 L 143 124.5 L 143 150.5" fill="none" stroke="rgb(0, 0, 0)" stroke-miterlimit="10" pointer-events="none"/><path d="M 90 150.5 L 90 176.5 L 143 176.5 L 143 150.5" fill="none" stroke="rgb(0, 0, 0)" stroke-miterlimit="10" pointer-events="none"/><path d="M 90 150.5 L 143 150.5" fill="none" stroke="rgb(0, 0, 0)" stroke-miterlimit="10" pointer-events="none"/><g fill="rgb(0, 0, 0)" font-family="Helvetica" pointer-events="none" text-anchor="middle" font-size="12px"><text x="116" y="142">E</text></g><path d="M 53 124.5 L 53 101 L 148.21 101 L 148.24 85.62" fill="none" stroke="rgb(0, 0, 0)" stroke-miterlimit="10" pointer-events="none"/><path d="M 148.25 78.62 L 151.74 85.62 L 144.74 85.61 Z" fill="none" stroke="rgb(0, 0, 0)" stroke-miterlimit="10" pointer-events="none"/><path d="M 25 150.5 L 25 124.5 L 78 124.5 L 78 150.5" fill="none" stroke="rgb(0, 0, 0)" stroke-miterlimit="10" pointer-events="none"/><path d="M 25 150.5 L 25 176.5 L 78 176.5 L 78 150.5" fill="none" stroke="rgb(0, 0, 0)" stroke-miterlimit="10" pointer-events="none"/><path d="M 25 150.5 L 78 150.5" fill="none" stroke="rgb(0, 0, 0)" stroke-miterlimit="10" pointer-events="none"/><g fill="rgb(0, 0, 0)" font-family="Helvetica" pointer-events="none" text-anchor="middle" font-size="12px"><text x="51" y="142">D</text></g></g></svg>