<?xml version="1.0" encoding="UTF-8"?>
<!DOCTYPE svg PUBLIC "-//W3C//DTD SVG 1.1//EN" "http://www.w3.org/Graphics/SVG/1.1/DTD/svg11.dtd">
<svg xmlns="http://www.w3.org/2000/svg" xmlns:xlink="http://www.w3.org/1999/xlink" version="1.1" width="141px" height="226px" viewBox="-0.5 -0.5 141 226" style="background-color: rgb(255, 255, 255);"><defs><clipPath id="mx-clip-4-31-132-26-0"><rect x="4" y="31" width="132" height="26"/></clipPath><clipPath id="mx-clip-4-57-132-26-0"><rect x="4" y="57" width="132" height="26"/></clipPath><clipPath id="mx-clip-4-83-132-26-0"><rect x="4" y="83" width="132" height="26"/></clipPath><clipPath id="mx-clip-4-109-132-26-0"><rect x="4" y="109" width="132" height="26"/></clipPath><clipPath id="mx-clip-4-135-132-66-0"><rect x="4" y="135" width="132" height="66"/></clipPath><clipPath id="mx-clip-4-201-132-26-0"><rect x="4" y="201" width="132" height="26"/></clipPath></defs><g><path d="M 0 26 L 0 0 L 140 0 L 140 26" fill="none" stroke="rgb(0, 0, 0)" stroke-miterlimit="10" pointer-events="all"/><path d="M 0 26 L 0 222 L 140 222 L 140 26" fill="none" stroke="rgb(0, 0, 0)" stroke-miterlimit="10" pointer-events="none"/><path d="M 0 26 L 140 26" fill="none" stroke="rgb(0, 0, 0)" stroke-miterlimit="10" pointer-events="none"/><g fill="rgb(0, 0, 0)" font-family="Helvetica" pointer-events="none" text-anchor="middle" font-size="12px"><text x="69.5" y="17.5">EntityA</text></g><g fill="rgb(0, 0, 0)" font-family="Helvetica" pointer-events="none" clip-path="url(#mx-clip-4-31-132-26-0)" font-size="12px"><text x="5.5" y="43.5">attr1 {PPK}</text></g><g fill="rgb(0, 0, 0)" font-family="Helvetica" pointer-events="none" clip-path="url(#mx-clip-4-57-132-26-0)" font-size="12px"><text x="5.5" y="69.5">attr2</text></g><g fill="rgb(0, 0, 0)" font-family="Helvetica" pointer-events="none" clip-path="url(#mx-clip-4-83-132-26-0)" font-size="12px"><text x="5.5" y="95.5">attr3 {AK}</text></g><g fill="rgb(0, 0, 0)" font-family="Helvetica" pointer-events="none" clip-path="url(#mx-clip-4-109-132-26-0)" font-size="12px"><text x="5.5" y="121.5">attr4 [0..*]</text></g><g fill="rgb(0, 0, 0)" font-family="Helvetica" pointer-events="none" clip-path="url(#mx-clip-4-135-132-66-0)" font-size="12px"><text x="5.5" y="147.5">attr5</text><text x="5.5" y="161.5">    attr5a</text><text x="5.5" y="175.5">    attr5b</text><text x="5.5" y="189.5">    attr5c</text></g><g fill="rgb(0, 0, 0)" font-family="Helvetica" pointer-events="none" clip-path="url(#mx-clip-4-201-132-26-0)" font-size="12px"><text x="5.5" y="213.5">/attr6</text></g></g></svg>